<svg xmlns="http://www.w3.org/2000/svg" viewBox="0 0 400 96">
  <!-- Logo completo Piauí Ceras: símbolo + nome. Use sobre fundos claros. -->
  <circle cx="48" cy="48" r="46" fill="#1b3a2d"/>
  <circle cx="48" cy="42" r="19" fill="#d99a2b"/>
  <g fill="#f2f7f4">
    <g transform="translate(48,58)">
      <path transform="rotate(-64)" d="M0,0 C-2.6,-9 -2.6,-18 0,-26 C2.6,-18 2.6,-9 0,0Z"/>
      <path transform="rotate(-43)" d="M0,0 C-2.8,-10 -2.8,-20 0,-29 C2.8,-20 2.8,-10 0,0Z"/>
      <path transform="rotate(-21)" d="M0,0 C-3,-11 -3,-22 0,-32 C3,-22 3,-11 0,0Z"/>
      <path d="M0,0 C-3,-11.5 -3,-23 0,-34 C3,-23 3,-11.5 0,0Z"/>
      <path transform="rotate(21)" d="M0,0 C-3,-11 -3,-22 0,-32 C3,-22 3,-11 0,0Z"/>
      <path transform="rotate(43)" d="M0,0 C-2.8,-10 -2.8,-20 0,-29 C2.8,-20 2.8,-10 0,0Z"/>
      <path transform="rotate(64)" d="M0,0 C-2.6,-9 -2.6,-18 0,-26 C2.6,-18 2.6,-9 0,0Z"/>
    </g>
    <path d="M45.6,84 C46.4,74 46.6,66 47.2,58 L48.8,58 C49.4,66 49.6,74 50.4,84 Z"/>
  </g>
  <text x="112" y="52" font-family="'Segoe UI', system-ui, Arial, sans-serif"
        font-size="34" font-weight="800" letter-spacing="-0.5" fill="#1b3a2d">Piauí Ceras</text>
  <text x="113" y="74" font-family="'Segoe UI', system-ui, Arial, sans-serif"
        font-size="12.5" font-weight="600" letter-spacing="2.6" fill="#d99a2b">E PRODUTOS DERIVADOS</text>
</svg>
